# xmcd
#
# Track frame offsets:
#	150
#	29152
#	50222
#	70277
#	91475
#	107435
#	124375
#	144895
#	156197
#	168010
#	181252
#	201255
#	219787
#	237035
#	251922
#
# Disc length: 3597 seconds
#
# Revision: 3
# Processed by: cddbd v1.5.2PL0 Copyright (c) Steve Scherf et al.
# Submitted via: audiograbber 1.83.01
#
DISCID=d50e0b0f
DTITLE=Music Maestro #6072 - Hits Of Dylan And Diamond
DYEAR=1900
DGENRE=Karaoke
TTITLE0=Bob Dylan - Like A Rolling Stone
TTITLE1=Neil Diamond - Heartlight
TTITLE2=Bob Dylan - Positively 4th Street
TTITLE3=Neil Diamond - America
TTITLE4=Bob Dylan - Lay Lady Lay
TTITLE5=Neil Diamond - Forever In Blue Jeans
TTITLE6=Bob Dylan - Rainy Day Women
TTITLE7=Neil Diamond - I Got The Feeling (Oh No No)
TTITLE8=Bob Dylan - Subterranean Homesick Blues
TTITLE9=Neil Diamond - Yesterday's Songs
TTITLE10=Neil Diamond - Soolaimon
TTITLE11=Bob Dylan - Just Like A Woman
TTITLE12=Neil Diamond - Sweet Caroline
TTITLE13=Bob Dylan - Knockin' On Heaven's Door
TTITLE14=Neil Diamond - If You Know What I Mean
EXTD=This disk Had wrong track information 
EXTT0=this disk has wrong track@artist list Please delete Will corect @re submi
EXTT0=t
EXTT1=
EXTT2=
EXTT3=
EXTT4=
EXTT5=
EXTT6=
EXTT7=
EXTT8=
EXTT9=
EXTT10=
EXTT11=
EXTT12=
EXTT13=
EXTT14=
PLAYORDER=
